<?xml version="1.0" standalone="no"?>
<!DOCTYPE svg PUBLIC "-//W3C//DTD SVG 20010904//EN"
 "http://www.w3.org/TR/2001/REC-SVG-20010904/DTD/svg10.dtd">
<svg version="1.0" xmlns="http://www.w3.org/2000/svg"
 width="16.000000pt" height="16.000000pt" viewBox="0 0 16.000000 16.000000"
 preserveAspectRatio="xMidYMid meet">
<metadata>
Created by potrace 1.11, written by Peter Selinger 2001-2013
</metadata>
<g transform="translate(0.000000,16.000000) scale(0.006250,-0.006250)"
fill="#000000" stroke="none">
<path d="M1160 2518 c-1 -24 -1 -96 -1 -160 l0 -118 -305 0 c-190 0 -313 -4
-325 -10 -27 -15 -49 -63 -49 -110 l0 -40 -240 0 -240 0 0 -963 0 -963 238 0
237 0 3 -34 c4 -57 11 -79 32 -100 20 -20 37 -20 769 -20 412 0 757 3 766 6
24 10 45 58 45 106 l0 43 235 -1 235 0 0 963 0 963 -235 0 -235 0 0 41 c0 45
-13 75 -43 102 -18 15 -49 17 -334 17 l-313 0 1 118 c0 64 0 136 0 160 l-1 42
-120 0 -120 0 0 -42z"/>
</g>
</svg>
